<?xml version="1.0" encoding="UTF-8" standalone="no"?>
<!-- Created with Inkscape (http://www.inkscape.org/) -->

<svg
   xmlns:dc="http://purl.org/dc/elements/1.1/"
   xmlns:cc="http://creativecommons.org/ns#"
   xmlns:rdf="http://www.w3.org/1999/02/22-rdf-syntax-ns#"
   xmlns:svg="http://www.w3.org/2000/svg"
   xmlns="http://www.w3.org/2000/svg"
   xmlns:xlink="http://www.w3.org/1999/xlink"
   xmlns:sodipodi="http://sodipodi.sourceforge.net/DTD/sodipodi-0.dtd"
   xmlns:inkscape="http://www.inkscape.org/namespaces/inkscape"
   id="svg2985"
   version="1.1"
   inkscape:version="0.48.4 r9939"
   width="836"
   height="809"
   sodipodi:docname="DSCN0819.png">
  <metadata
     id="metadata2991">
    <rdf:RDF>
      <cc:Work
         rdf:about="">
        <dc:format>image/svg+xml</dc:format>
        <dc:type
           rdf:resource="http://purl.org/dc/dcmitype/StillImage" />
        <dc:title></dc:title>
      </cc:Work>
    </rdf:RDF>
  </metadata>
  <defs
     id="defs2989">
    <linearGradient
       id="linearGradient3868">
      <stop
         style="stop-color:#706441;stop-opacity:1;"
         offset="0"
         id="stop3870" />
      <stop
         id="stop3876"
         offset="0.72669488"
         style="stop-color:#6a5c3b;stop-opacity:1;" />
      <stop
         style="stop-color:#ebe0c0;stop-opacity:1;"
         offset="1"
         id="stop3872" />
    </linearGradient>
    <filter
       inkscape:collect="always"
       id="filter3864">
      <feGaussianBlur
         inkscape:collect="always"
         stdDeviation="0.35568084"
         id="feGaussianBlur3866" />
    </filter>
    <radialGradient
       inkscape:collect="always"
       xlink:href="#linearGradient3868"
       id="radialGradient3874"
       cx="359.26419"
       cy="351.39709"
       fx="359.26419"
       fy="351.39709"
       r="337.87048"
       gradientTransform="matrix(1.0037345,-0.00358072,0.00359034,1.0064291,-2.6033029,-0.97274685)"
       gradientUnits="userSpaceOnUse" />
    <radialGradient
       inkscape:collect="always"
       xlink:href="#linearGradient3868-4"
       id="radialGradient3874-2"
       cx="359.26419"
       cy="351.39709"
       fx="359.26419"
       fy="351.39709"
       r="337.87048"
       gradientTransform="matrix(1,0,0,0.99658035,0,1.2016562)"
       gradientUnits="userSpaceOnUse" />
    <linearGradient
       id="linearGradient3868-4">
      <stop
         style="stop-color:#000000;stop-opacity:1;"
         offset="0"
         id="stop3870-5" />
      <stop
         id="stop3876-5"
         offset="1"
         style="stop-color:#a4896e;stop-opacity:1;" />
    </linearGradient>
    <radialGradient
       inkscape:collect="always"
       xlink:href="#linearGradient3868-4"
       id="radialGradient5576"
       cx="67.134529"
       cy="306.53329"
       fx="67.134529"
       fy="306.53329"
       r="260.51068"
       gradientTransform="matrix(0.58182257,0.68247987,-0.94113109,0.80232601,364.4297,7.8510525)"
       gradientUnits="userSpaceOnUse" />
    <filter
       inkscape:collect="always"
       id="filter5604"
       x="-0.10451147"
       width="1.2090229"
       y="-0.10758115"
       height="1.2151623">
      <feGaussianBlur
         inkscape:collect="always"
         stdDeviation="22.688628"
         id="feGaussianBlur5606" />
    </filter>
    <radialGradient
       inkscape:collect="always"
       xlink:href="#linearGradient3868-4-6"
       id="radialGradient5576-3"
       cx="67.134529"
       cy="306.53329"
       fx="67.134529"
       fy="306.53329"
       r="260.51068"
       gradientTransform="matrix(0.58182257,0.68247987,-0.94113109,0.80232601,364.4297,7.8510525)"
       gradientUnits="userSpaceOnUse" />
    <linearGradient
       id="linearGradient3868-4-6">
      <stop
         style="stop-color:#000000;stop-opacity:1;"
         offset="0"
         id="stop3870-5-2" />
      <stop
         id="stop3876-5-4"
         offset="0.5"
         style="stop-color:#5d533b;stop-opacity:1;" />
      <stop
         style="stop-color:#ebe0c0;stop-opacity:1;"
         offset="1"
         id="stop3872-1-5" />
    </linearGradient>
    <radialGradient
       inkscape:collect="always"
       xlink:href="#linearGradient3868-49"
       id="radialGradient3874-21"
       cx="359.26419"
       cy="351.39709"
       fx="359.26419"
       fy="351.39709"
       r="337.87048"
       gradientTransform="matrix(1.0037345,-0.00358072,0.00359034,1.0064291,-2.6033029,-0.97274685)"
       gradientUnits="userSpaceOnUse" />
    <linearGradient
       id="linearGradient3868-49">
      <stop
         style="stop-color:#706441;stop-opacity:1;"
         offset="0"
         id="stop3870-8" />
      <stop
         id="stop3876-2"
         offset="0.72669488"
         style="stop-color:#6a5c3b;stop-opacity:1;" />
      <stop
         style="stop-color:#ebe0c0;stop-opacity:1;"
         offset="1"
         id="stop3872-4" />
    </linearGradient>
    <radialGradient
       inkscape:collect="always"
       xlink:href="#linearGradient3868-4"
       id="radialGradient5698"
       cx="335.66287"
       cy="363.19772"
       fx="335.66287"
       fy="363.19772"
       r="275.65948"
       gradientTransform="matrix(1.0348197,0,0,1.0037749,-10.376509,0.59571732)"
       gradientUnits="userSpaceOnUse" />
    <filter
       inkscape:collect="always"
       id="filter5704">
      <feGaussianBlur
         inkscape:collect="always"
         stdDeviation="2.6408285"
         id="feGaussianBlur5706" />
    </filter>
    <radialGradient
       inkscape:collect="always"
       xlink:href="#linearGradient3868-4-69"
       id="radialGradient5576-38"
       cx="67.134529"
       cy="306.53329"
       fx="67.134529"
       fy="306.53329"
       r="260.51068"
       gradientTransform="matrix(0.58182257,0.68247987,-0.94113109,0.80232601,364.4297,7.8510525)"
       gradientUnits="userSpaceOnUse" />
    <linearGradient
       id="linearGradient3868-4-69">
      <stop
         style="stop-color:#000000;stop-opacity:1;"
         offset="0"
         id="stop3870-5-8" />
      <stop
         id="stop3876-5-6"
         offset="1"
         style="stop-color:#a4896e;stop-opacity:1;" />
    </linearGradient>
    <filter
       id="filter5970"
       inkscape:label="Bubbly Bumps alpha"
       inkscape:menu="Image effects, transparent"
       inkscape:menu-tooltip="Same as Bubbly Bumps but with transparent highlights"
       color-interpolation-filters="sRGB">
      <feGaussianBlur
         id="feGaussianBlur5972"
         result="result0"
         in="SourceGraphic"
         stdDeviation="0.5" />
      <feTurbulence
         id="feTurbulence5974"
         baseFrequency="0.2"
         seed="300"
         numOctaves="10"
         result="result1"
         type="fractalNoise" />
      <feGaussianBlur
         id="feGaussianBlur5976"
         stdDeviation="4"
         result="result8" />
      <feDisplacementMap
         id="feDisplacementMap5978"
         in2="result8"
         result="result7"
         scale="5"
         in="SourceGraphic"
         xChannelSelector="R" />
      <feComposite
         id="feComposite5980"
         in2="result1"
         result="result2"
         operator="in"
         in="result7" />
      <feComposite
         id="feComposite5982"
         in2="result2"
         k3="3"
         in="result0"
         operator="arithmetic"
         result="result9" />
      <feBlend
         id="feBlend5984"
         in2="result2"
         result="fbSourceGraphic"
         mode="multiply" />
      <feColorMatrix
         id="feColorMatrix5986"
         values="1 0 0 -1 0 1 0 1 -1 0 1 0 0 -1 0 -1.8 -0.5 0 5.7 -3.5 "
         in="fbSourceGraphic"
         result="fbSourceGraphicAlpha" />
      <feGaussianBlur
         id="feGaussianBlur5988"
         stdDeviation="0.5"
         in="fbSourceGraphicAlpha"
         result="result0" />
      <feSpecularLighting
         id="feSpecularLighting5990"
         result="result6"
         surfaceScale="-5"
         specularExponent="5">
        <feDistantLight
           id="feDistantLight5992"
           azimuth="225"
           elevation="25" />
      </feSpecularLighting>
      <feComposite
         id="feComposite5994"
         in2="result6"
         in="SourceGraphic"
         result="result2"
         operator="in" />
      <feComposite
         id="feComposite5996"
         in2="result2"
         in="result2"
         result="result4"
         operator="arithmetic"
         k2="1"
         k3="1" />
    </filter>
    <filter
       inkscape:collect="always"
       id="filter6326"
       x="-0.52002296"
       width="2.0400459"
       y="-0.47480355"
       height="1.9496071">
      <feGaussianBlur
         inkscape:collect="always"
         stdDeviation="8.4374053"
         id="feGaussianBlur6328" />
    </filter>
    <filter
       inkscape:collect="always"
       id="filter6336"
       x="-0.32058719"
       width="1.6411744"
       y="-0.19928343"
       height="1.3985669">
      <feGaussianBlur
         inkscape:collect="always"
         stdDeviation="16.490151"
         id="feGaussianBlur6338" />
    </filter>
  </defs>
  <sodipodi:namedview
     pagecolor="#ffffff"
     bordercolor="#666666"
     borderopacity="1"
     objecttolerance="10"
     gridtolerance="10"
     guidetolerance="10"
     inkscape:pageopacity="0"
     inkscape:pageshadow="2"
     inkscape:window-width="1600"
     inkscape:window-height="823"
     id="namedview2987"
     showgrid="false"
     inkscape:zoom="0.38133498"
     inkscape:cx="-590.76606"
     inkscape:cy="370.27304"
     inkscape:window-x="-9"
     inkscape:window-y="-9"
     inkscape:window-maximized="1"
     inkscape:current-layer="layer1" />
  <g
     inkscape:groupmode="layer"
     id="layer2"
     inkscape:label="origin"
     style="display:none">
    <image
       width="836"
       height="809"
       xlink:href="file:///C:/Users/Kevin/Documents/GitHub/webketje.github.io/assets/img/DSCN0819.png"
       id="image2993"
       x="0"
       y="0" />
  </g>
  <g
     inkscape:groupmode="layer"
     id="layer1"
     inkscape:label="Vector"
     style="display:inline">
    <path
       style="fill:#c8beb7;stroke:#000000;stroke-width:1px;stroke-linecap:butt;stroke-linejoin:miter;stroke-opacity:1;fill-opacity:1"
       d="m 683.12642,497.594 c 0,0 135.70745,-13.76742 138.98541,-19.01215 3.27796,-5.24474 7.8671,-11.14506 7.8671,-12.45624 0,-1.31119 -118.66207,-48.51378 -124.5624,-26.22367 -5.90032,22.29012 -15.0786,42.61346 -22.29011,57.69206 z"
       id="path6314"
       inkscape:connector-curvature="0" />
    <path
       style="fill:#f7f7ed;fill-opacity:1;stroke:#dee1c9;stroke-width:1.20000005;stroke-miterlimit:4;stroke-opacity:1;stroke-dasharray:none;filter:url(#filter3864)"
       d="M 355.88252,-4.8203919 C 256.23555,-4.2008053 157.48879,40.879651 91.111118,117.81315 30.578962,186.60543 -1.7377923,281.10507 5.0263469,374.19446 10.926731,469.91469 58.348041,561.00211 130.06057,620.9303 209.4653,688.82692 317.66187,717.62227 419.18478,700.41667 524.57192,683.61528 621.52709,616.00443 673.7391,519.44364 721.03268,433.9616 729.96246,326.65521 697.22498,234.02358 662.05685,131.27076 578.23614,49.49729 478.85106,15.191412 439.33078,1.3363032 397.62096,-5.3921732 355.88252,-4.8203919 z"
       id="path2996"
       inkscape:connector-curvature="0" />
    <path
       style="opacity:0.45692887;fill:url(#radialGradient3874);fill-opacity:1;stroke:none;display:inline"
       d="M 354.95072,14.713865 C 260.45531,15.301421 166.81359,58.051299 103.8675,131.00748 46.464761,196.24333 15.818718,285.85751 22.233164,374.13434 27.828515,464.90601 72.798229,551.28438 140.80335,608.11438 216.103,672.50087 318.706,699.80755 414.98036,683.49145 514.91918,667.55866 606.86194,603.44318 656.37469,511.8744 701.22327,430.81162 709.6914,329.05278 678.64638,241.21004 645.29639,143.76936 565.80905,66.223421 471.56201,33.691094 434.08485,20.55227 394.53136,14.171645 354.95072,14.713865 z"
       id="path2996-7"
       inkscape:connector-curvature="0" />
    <path
       style="opacity:0.64081576;fill:#613008;fill-opacity:1;stroke:none;display:inline"
       d="m 332.33704,111.4555 c -72.85946,0.44162 -145.0607,32.57271 -193.59447,87.40708 C 94.482923,247.89429 70.853691,315.24892 75.799467,381.59839 80.113693,449.823 114.787,514.74557 167.22148,557.45938 225.2803,605.85272 304.39102,626.3766 378.62212,614.11331 455.67866,602.13812 526.56994,553.94848 564.7461,485.12476 599.32603,424.19742 605.85527,347.71478 581.91841,281.69158 556.20433,208.4545 494.91664,150.17044 422.24867,125.71892 393.3524,115.84369 362.85519,111.04797 332.33704,111.4555 z"
       id="path2996-7-7"
       inkscape:connector-curvature="0" />
    <path
       style="opacity:0.23673467;fill:url(#radialGradient5576);fill-opacity:1;stroke:none;display:inline;filter:url(#filter5604)"
       d="m 332.33704,111.4555 c -72.85946,0.44162 -145.0607,32.57271 -193.59447,87.40708 C 94.482924,247.89429 70.853694,315.24892 75.799464,381.59839 80.113694,449.823 114.787,514.74557 167.22148,557.45938 225.2803,605.85272 304.39102,626.3766 378.62212,614.11331 455.67866,602.13812 526.56994,553.94848 564.7461,485.12476 599.32603,424.19742 605.85527,347.71478 581.91841,281.69158 556.20433,208.4545 494.91664,150.17044 422.24867,125.71892 393.3524,115.84369 362.85519,111.04797 332.33704,111.4555 z"
       id="path2996-7-7-1"
       inkscape:connector-curvature="0" />
    <path
       style="fill:none;stroke:url(#radialGradient5698);stroke-width:15.31231594;stroke-miterlimit:4;stroke-opacity:1;stroke-dasharray:none;display:inline;filter:url(#filter5704)"
       d="m 333.55092,105.15504 c -74.99088,0.45375 -149.30428,33.46808 -199.25787,89.80977 -45.554397,50.37952 -69.874884,119.58562 -64.784423,187.75893 4.440432,70.09998 40.128083,136.80718 94.096453,180.69513 59.75728,49.7236 141.1823,70.81164 217.58496,58.21127 79.31074,-12.30438 152.27586,-61.81867 191.56884,-132.53425 35.59151,-62.60215 42.31175,-141.18717 17.67463,-209.02524 -26.4663,-75.25027 -89.54689,-135.13646 -164.34069,-160.26012 -29.7416,-10.14667 -61.13096,-15.07423 -92.5419,-14.65549 z"
       id="path2996-7-5"
       inkscape:connector-curvature="0"
       transform="matrix(0.97857721,0,0,0.98314691,6.7553559,5.2269993)" />
    <path
       transform="matrix(0.97857721,0,0,0.98314691,6.7553559,5.2269993)"
       inkscape:connector-curvature="0"
       id="path5708"
       d="m 333.55092,105.15504 c -74.99088,0.45375 -149.30428,33.46808 -199.25787,89.80977 -45.554397,50.37952 -69.874884,119.58562 -64.784423,187.75893 4.440432,70.09998 40.128083,136.80718 94.096453,180.69513 59.75728,49.7236 141.1823,70.81164 217.58496,58.21127 79.31074,-12.30438 152.27586,-61.81867 191.56884,-132.53425 35.59151,-62.60215 42.31175,-141.18717 17.67463,-209.02524 -26.4663,-75.25027 -89.54689,-135.13646 -164.34069,-160.26012 -29.7416,-10.14667 -61.13096,-15.07423 -92.5419,-14.65549 z"
       style="fill:none;stroke:url(#radialGradient5698);stroke-width:15.31231594;stroke-miterlimit:4;stroke-opacity:1;stroke-dasharray:none;display:inline;filter:url(#filter5704)" />
    <path
       style="fill:#e3dedb;stroke:#000000;stroke-width:0.94770949999999998px;stroke-linecap:butt;stroke-linejoin:miter;stroke-opacity:1;fill-opacity:1"
       d="m 718.33503,345.67217 c 0,0 105.80136,18.31527 112.71431,41.54517 6.91295,23.22989 4.2765,68.17806 -3.49994,84.17219 0,0 -8.29259,19.69005 -13.95282,-3.19181 -5.26749,-21.29418 -108.22332,-27.81904 -108.22332,-27.81904 0,0 11.23353,-27.28135 12.96177,-94.70651 z"
       id="path6312"
       inkscape:connector-curvature="0"
       sodipodi:nodetypes="cscscc" />
    <path
       sodipodi:type="arc"
       style="opacity:0.37551018000000003;fill:#ecaf8a;fill-opacity:1;stroke:none;filter:url(#filter6326)"
       id="path6316"
       sodipodi:cx="269.79962"
       sodipodi:cy="408.47272"
       sodipodi:rx="19.470076"
       sodipodi:ry="21.324369"
       d="m 289.2697,408.47272 a 19.470076,21.324369 0 1 1 -38.94015,0 19.470076,21.324369 0 1 1 38.94015,0 z"
       transform="matrix(1,0,0,0.93309689,-76.953159,117.26131)" />
    <path
       style="fill:#d28e47;stroke:none;stroke-width:1px;stroke-linecap:butt;stroke-linejoin:miter;stroke-opacity:1;fill-opacity:0.37037036;filter:url(#filter6336)"
       d="m 293.90544,343.57246 c -1.2362,0.30905 -2.56887,0.35729 -3.70859,0.92715 -1.85429,0.92714 -1.39072,1.85429 -2.78144,2.78144 -0.57499,0.38332 -1.30145,0.51251 -1.85429,0.92714 -0.6993,0.52448 -1.2362,1.2362 -1.85429,1.8543 -0.6181,0.61809 -1.36942,1.12698 -1.8543,1.85429 -0.17143,0.25714 0.13821,0.65072 0,0.92715 -0.70999,1.41999 -1.65219,0.72504 -2.78144,1.85429 -0.48864,0.48865 -0.70861,1.1987 -0.92714,1.85429 -0.0977,0.29319 0,0.6181 0,0.92715 0,0.6181 0.19546,1.26791 0,1.85429 -0.13821,0.41463 -0.73169,0.53623 -0.92715,0.92715 -0.13821,0.27642 0,0.6181 0,0.92714 0,0.30905 0,0.6181 0,0.92715 0,1.2362 0,2.47239 0,3.70859 0,1.54524 0,3.09048 0,4.63573 0,0.30905 -0.075,0.62732 0,0.92715 0.47406,1.89623 1.31733,3.68348 1.85429,5.56287 0.35007,1.22522 0.45391,2.52549 0.92715,3.70859 0.16232,0.4058 0.73169,0.53623 0.92715,0.92715 0.7272,1.4544 1.12709,4.10848 1.85429,5.56288 2.26888,4.53776 1.12151,1.18629 3.70859,4.63573 0.41463,0.55284 0.61809,1.23619 0.92714,1.85429 0.30905,0.6181 0.70862,1.1987 0.92715,1.85429 0.0977,0.29319 -0.21853,0.70862 0,0.92715 0.48865,0.48865 1.36564,0.4385 1.85429,0.92715 0.48865,0.48865 0.54382,1.2793 0.92715,1.85429 0.24244,0.36366 0.68471,0.56349 0.92715,0.92715 0.38332,0.57499 0.43849,1.36564 0.92714,1.85429 0.92715,0.6181 1.85429,1.23619 2.78144,1.85429 0.30905,0 0.65073,-0.13821 0.92715,0 1.41999,0.71 0.72504,1.65219 1.85429,2.78144 0.48865,0.48865 1.2793,0.54382 1.85429,0.92715 0.36366,0.24244 0.56349,0.68471 0.92715,0.92715 4.33306,2.8887 -1.11053,-1.81558 4.63573,2.78143 0.68258,0.54606 1.2362,1.2362 1.8543,1.8543 1.23619,1.23619 2.61646,2.34343 3.70858,3.70858 0.69609,0.87012 1.06637,1.99352 1.85429,2.78144 0.48865,0.48865 1.31467,0.49545 1.8543,0.92715 1.02386,0.81909 1.85429,1.85429 2.78144,2.78144 0.61809,0.6181 1.40456,1.10474 1.85429,1.85429 0.50282,0.83803 0.49009,1.90732 0.92715,2.78144 0.49832,0.99665 1.18571,1.89001 1.85429,2.78144 0.26224,0.34965 0.73169,0.53623 0.92715,0.92715 0.43706,0.87412 0.56418,1.87404 0.92714,2.78144 0.25665,0.64162 0.75954,1.18387 0.92715,1.85429 0.14991,0.59964 -0.14991,1.25465 0,1.85429 0.1676,0.67042 0.75954,1.18387 0.92715,1.8543 0.14991,0.59964 0,1.23619 0,1.85429 0,0.6181 0,1.23619 0,1.85429 0,0.31586 0.16725,3.20681 0,3.70859 -0.21854,0.65559 -0.70862,1.1987 -0.92715,1.85429 -0.0977,0.29319 0.13821,0.65073 0,0.92715 -0.19546,0.39092 -0.73169,0.53622 -0.92715,0.92714 -0.24512,0.49025 0.11293,3.25689 0,3.70859 -0.1676,0.67042 -0.70861,1.1987 -0.92714,1.85429 -0.19546,0.58638 0.27642,1.30145 0,1.8543 -0.39092,0.78183 -1.46338,1.07245 -1.8543,1.85429 -0.43706,0.87412 -0.69011,1.83332 -0.92714,2.78144 -0.14991,0.59964 0.27642,1.30145 0,1.85429 -0.19546,0.39092 -0.78894,0.51252 -0.92715,0.92715 -0.19546,0.58638 0,1.23619 0,1.85429 0,0.30905 0.13821,0.65073 0,0.92715 -0.19546,0.39092 -0.78894,0.51251 -0.92715,0.92714 -0.18081,0.54246 0,4.76709 0,5.56288 0,0.64022 -0.14094,3.4267 0,3.70859 0.19546,0.39092 0.73169,0.53623 0.92715,0.92715 0.13821,0.27642 -0.21853,0.70861 0,0.92714 0.21853,0.21853 0.65072,-0.13821 0.92715,0 0.39092,0.19546 0.61809,0.6181 0.92714,0.92715 0.30905,0.30905 0.73169,0.53623 0.92715,0.92714 0.78856,1.57712 -2.0397,0.8808 1.85429,1.8543 0.59965,0.14991 1.25465,-0.14991 1.8543,0 0.67042,0.1676 1.23619,0.6181 1.85429,0.92714 0.92714,0 1.86691,-0.15242 2.78144,0 0.964,0.16067 1.81396,0.78894 2.78144,0.92715 1.22377,0.17482 2.48921,-0.20323 3.70858,0 0.68166,0.11361 1.17264,0.81354 1.8543,0.92715 2.43875,0.40646 4.96387,-0.30667 7.41717,0 1.2644,0.15805 2.44715,0.74694 3.70858,0.92714 0.91783,0.13112 1.8543,0 2.78144,0 3.70859,0 7.41718,0 11.12576,0 1.54525,0 3.09049,0 4.63573,0 0.6181,0 1.26792,0.19546 1.8543,0 0.41463,-0.13821 0.56349,-0.68471 0.92714,-0.92714 1.14999,-0.76666 2.55861,-1.08764 3.70859,-1.8543 1.18053,-0.78702 1.10367,-1.5304 1.85429,-2.78144 0.5733,-0.95549 1.18572,-1.89 1.8543,-2.78143 0.26223,-0.34965 0.6847,-0.56349 0.92714,-0.92715 0.76666,-1.14999 1.2362,-2.47239 1.8543,-3.70859 0.61809,-1.23619 1.34099,-2.42533 1.85429,-3.70858 0.36296,-0.9074 0.49008,-1.90732 0.92714,-2.78144 1.66542,-3.33084 0.68336,3.31706 1.8543,-3.70859 0.15242,-0.91453 -0.18183,-1.8723 0,-2.78144 0.84774,-4.23871 1.03341,0.66148 2.78144,-3.70858 0.68866,-1.72167 -0.44974,-3.76395 0,-5.56288 0.106,-0.42401 0.66491,-0.5775 0.92714,-0.92715 0.66858,-0.89143 1.35597,-1.78479 1.8543,-2.78144 0.36207,-0.72415 1.04417,-3.82562 1.85429,-4.63573 0.48865,-0.48865 1.43966,-0.3743 1.85429,-0.92715 3.35643,-4.47524 -0.48565,-1.10374 0.92715,-4.63573 0.41384,-1.03459 1.28099,-1.82594 1.85429,-2.78144 0.67136,-1.11893 1.68846,-3.47486 1.85429,-4.63573 0.17483,-1.22377 0,-2.47239 0,-3.70859 0,-1.54524 0,-3.09049 0,-4.63573 0,-0.34647 0.0886,-6.22417 0,-6.49003 -0.35236,-1.05711 -1.35596,-1.78478 -1.85429,-2.78144 -0.43706,-0.87412 -0.31663,-2.01829 -0.92714,-2.78144 -0.6961,-0.87011 -2.06809,-0.99827 -2.78144,-1.85429 -0.88481,-1.06176 -1.05096,-2.58392 -1.8543,-3.70858 -2.39,-3.34601 -2.69273,-2.24395 -5.56288,-4.63574 -1.00727,-0.8394 -1.85429,-1.85429 -2.78144,-2.78144 -2.16334,-2.16334 -4.16713,-4.49897 -6.49002,-6.49002 -0.84603,-0.72517 -1.93541,-1.12912 -2.78144,-1.85429 -1.32737,-1.13775 -2.32861,-2.63527 -3.70859,-3.70859 -8.78288,-6.83113 -1.16278,0.36777 -7.41717,-4.63573 -0.68257,-0.54606 -1.17172,-1.30824 -1.85429,-1.8543 -0.87012,-0.69609 -1.82594,-1.28099 -2.78144,-1.85429 -0.80661,-0.48396 -2.2755,-0.84241 -2.78144,-1.85429 -0.13821,-0.27642 0.13821,-0.65073 0,-0.92715 -0.19546,-0.39092 -0.78894,-0.51251 -0.92715,-0.92715 -0.16614,-0.49843 0,-2.92361 0,-3.70858 0,-0.53422 -0.16896,-4.29781 0,-4.63573 0.39092,-0.78184 1.36942,-1.12698 1.8543,-1.8543 0.38332,-0.57499 0.43849,-1.36564 0.92714,-1.85429 0.9773,-0.9773 2.6029,-1.02503 3.70859,-1.85429 5.67741,-5.67742 -1.56368,1.17276 3.70858,-2.78144 0.6993,-0.52448 1.10474,-1.40456 1.8543,-1.8543 3.11637,-1.86982 2.13405,0.022 4.63573,-1.85429 1.0384,-0.7788 1.74304,-2.00263 2.78144,-2.78144 1.08399,-1.68254 3.19409,-1.70021 4.63573,-2.78144 1.04895,-0.78671 1.69047,-2.05412 2.78144,-2.78144 0.1727,-0.11513 3.64918,-1.79488 3.70859,-1.85429 0.21853,-0.21853 -0.13821,-0.65072 0,-0.92715 0.55629,-1.11257 2.22515,-1.66886 2.78144,-2.78144 0.27642,-0.55284 -0.27642,-1.30145 0,-1.85429 0.13821,-0.27642 0.78893,0.27642 0.92714,0 0.27643,-0.55284 -0.14991,-1.25465 0,-1.85429 0.16761,-0.67042 0.75954,-1.18387 0.92715,-1.85429 0.21013,-0.84051 0,-3.5587 0,-4.63574 0,-2.47239 0,-4.94478 0,-7.41717 0,-0.92715 0.15242,-1.86691 0,-2.78144 -1.01234,-6.07403 -0.40713,0.11288 -2.78144,-4.63573 -0.27642,-0.55284 0.27642,-1.30145 0,-1.85429 -0.39092,-0.78184 -1.32982,-1.155 -1.85429,-1.8543 -0.25322,-0.33762 -1.60108,-3.37096 -1.8543,-3.70858 -0.52447,-0.6993 -1.23619,-1.2362 -1.85429,-1.8543 -0.6181,-0.61809 -1.17172,-1.30823 -1.85429,-1.85429 -1.74023,-1.39218 -3.82265,-2.3164 -5.56288,-3.70858 -0.68258,-0.54606 -1.10474,-1.40457 -1.85429,-1.8543 -0.0468,-0.0281 -5.43393,-1.79902 -5.56288,-1.85429 -1.27036,-0.54444 -2.36775,-1.51908 -3.70859,-1.85429 -1.19928,-0.29982 -2.47995,0.13651 -3.70858,0 -1.56621,-0.17403 -3.09049,-0.6181 -4.63574,-0.92715 -1.54524,-0.30905 -3.09741,-0.5853 -4.63573,-0.92715 -1.2439,-0.27642 -2.44214,-0.78643 -3.70859,-0.92714 -1.53579,-0.17065 -3.09683,0.1399 -4.63573,0 -1.87215,-0.1702 -3.69073,-0.75695 -5.56288,-0.92715 -1.53889,-0.1399 -3.09994,0.17064 -4.63573,0 -1.26645,-0.14072 -2.44214,-0.78643 -3.70859,-0.92715 -1.53579,-0.17064 -3.09048,0 -4.63573,0 -1.65537,0 -3.01717,0 -4.63573,0 -0.92715,0 -1.85429,0 -2.78144,0 -0.30905,0 -0.70862,-0.21853 -0.92715,0 -0.21853,0.21853 0.21853,0.70862 0,0.92715 -0.21853,0.21853 -0.78893,-0.27642 -0.92714,0 -0.27642,0.55284 0.19546,1.26791 0,1.85429 -0.13821,0.41464 -0.78894,0.51252 -0.92715,0.92715 -0.19546,0.58638 0,1.2362 0,1.85429 0,0.30905 -0.075,0.62733 0,0.92715 0.23703,0.94812 0.69012,1.83332 0.92715,2.78144 0.075,0.29982 -0.13821,0.65072 0,0.92715 2.12159,4.24318 -0.38428,-3.93427 1.85429,2.78143 0.0977,0.29319 0,0.6181 0,0.92715 0,1.58035 -0.0977,1.65883 0.92715,3.70859 0.19546,0.39092 0.61809,0.61809 0.92714,0.92714 0.94247,0.94247 1.48009,1.28464 1.8543,2.78144 0.14991,0.59965 0,1.2362 0,1.8543 0.30905,0.61809 0.70861,1.1987 0.92714,1.85429 0.29319,0.87957 -0.22486,1.88197 0,2.78144 0.16761,0.67042 0.70862,1.1987 0.92715,1.85429 0.19398,0.58193 0,2.9622 0,3.70859 0,0.51802 0.18238,4.0886 0,4.63573 -0.21853,0.65559 -0.4385,1.36564 -0.92715,1.85429 -0.63896,0.63896 -4.54312,2.1016 -5.56288,2.78144 -0.36365,0.24244 -0.53622,0.73169 -0.92714,0.92715 -0.54704,0.27352 -2.14372,-0.21257 -2.78144,0 -1.31119,0.43706 -2.3974,1.41723 -3.70859,1.85429 -2.75996,0.91999 1.90233,-2.19536 -2.78144,0.92715 -0.36365,0.24244 -0.56349,0.68471 -0.92714,0.92715 -0.84694,0.56462 -2.24999,0.79139 -2.78144,1.85429 -0.25149,0.50296 0.25368,3.4549 0,3.70858 -0.48865,0.48865 -1.1987,0.70862 -1.8543,0.92715 -0.58638,0.19546 -1.41723,-0.43706 -1.85429,0 -0.21853,0.21853 0,0.6181 0,0.92715 -1.54524,-0.30905 -3.09049,-0.6181 -4.63573,-0.92715 z"
       id="path6330"
       inkscape:connector-curvature="0" />
  </g>
</svg>
